HIERARCHY
ROOT Hips
{
	OFFSET 0.00000 0.00000 0.00000
	CHANNELS 6 Xposition Yposition Zposition Zrotation Yrotation Xrotation 
	JOINT LHipJoint
	{
		OFFSET 0 0 0
		CHANNELS 3 Zrotation Yrotation Xrotation
		JOINT LeftHip
		{
			OFFSET 3.13874 -1.57224 1.49786
			CHANNELS 3 Zrotation Yrotation Xrotation
			JOINT LeftKnee
			{
				OFFSET 2.10955 -5.79594 0.00000
				CHANNELS 3 Zrotation Yrotation Xrotation
				JOINT LeftAnkle
				{
					OFFSET 2.41843 -6.64458 0.00000
					CHANNELS 3 Zrotation Yrotation Xrotation
					JOINT LeftToe
					{
						OFFSET 0.04713 -0.12948 1.66229
						CHANNELS 3 Zrotation Yrotation Xrotation
						End Site
						{
							OFFSET 0.00000 -0.00000 0.85167
						}
					}
				}
			}
		}
	}
	JOINT RHipJoint
	{
		OFFSET 0 0 0
		CHANNELS 3 Zrotation Yrotation Xrotation
		JOINT RightHip
		{
			OFFSET -3.13988 -1.57224 1.49786
			CHANNELS 3 Zrotation Yrotation Xrotation
			JOINT RightKnee
			{
				OFFSET -2.15006 -5.90725 0.00000
				CHANNELS 3 Zrotation Yrotation Xrotation
				JOINT RightAnkle
				{
					OFFSET -2.34496 -6.44273 0.00000
					CHANNELS 3 Zrotation Yrotation Xrotation
					JOINT RightToe
					{
						OFFSET -0.08699 -0.23900 1.55223
						CHANNELS 3 Zrotation Yrotation Xrotation
						End Site
						{
							OFFSET -0.00000 -0.00000 0.80281
						}
					}
				}
			}
		}
	}
	JOINT lowerback
	{
		OFFSET 0 0 0
		CHANNELS 3 Zrotation Yrotation Xrotation
		JOINT Chest
		{
			OFFSET 0.01292 1.96517 -0.16495
			CHANNELS 3 Zrotation Yrotation Xrotation
			JOINT Chest2
			{
				OFFSET 0.02122 1.88666 0.19706
				CHANNELS 3 Zrotation Yrotation Xrotation
				JOINT lowerneck
				{
					OFFSET 0 0 0
					CHANNELS 3 Zrotation Yrotation Xrotation
					JOINT Neck
					{
						OFFSET -0.01683 1.81591 0.07903
						CHANNELS 3 Zrotation Yrotation Xrotation
						JOINT Head
						{
							OFFSET 0.00815 1.74013 -0.47700
							CHANNELS 3 Zrotation Yrotation Xrotation
							End Site
							{
								OFFSET -0.00204 1.83225 -0.16933
							}
						}
					}
				}
				JOINT LeftCollar
				{
					OFFSET 0 0 0
					CHANNELS 3 Zrotation Yrotation Xrotation
					JOINT LeftShoulder
					{
						OFFSET 3.38482 1.41533 0.19802
CHANNELS 3 Zrotation Xrotation Yrotation
						JOINT LeftElbow
						{
OFFSET 0 -4.327120 0.000000
CHANNELS 3 Zrotation Xrotation Yrotation
							JOINT LeftWrist
							{
OFFSET 0 -3.285870 -0.000000
CHANNELS 3 Zrotation Xrotation Yrotation
								JOINT lhand
								{
									OFFSET 0 0 0
CHANNELS 3 Zrotation Xrotation Yrotation
									JOINT LFingers
									{
OFFSET 0 -0.433160 -0.000000
CHANNELS 3 Zrotation Xrotation Yrotation
										End Site
										{
OFFSET 0 -0.349220 -0.000000
										}
									}
								}
								JOINT LThumb
								{
OFFSET 0 0.000000 0.000000
CHANNELS 3 Zrotation Xrotation Yrotation
									End Site
									{
OFFSET 0 -0.354560 0.354560
									}
								}
							}
						}
					}
				}
				JOINT RightCollar
				{
					OFFSET 0 0 0
					CHANNELS 3 Zrotation Yrotation Xrotation
					JOINT RightShoulder
					{
						OFFSET -3.09725 1.62858 -0.14144
CHANNELS 3 Zrotation Xrotation Yrotation
						JOINT RightElbow
						{
OFFSET 0 -4.291040 0.000000
CHANNELS 3 Zrotation Xrotation Yrotation
							JOINT RightWrist
							{
OFFSET 0 -3.227200 -0.000000
CHANNELS 3 Zrotation Xrotation Yrotation
								JOINT rhand
								{
									OFFSET 0 0 0
CHANNELS 3 Zrotation Xrotation Yrotation
									JOINT RFingers
									{
OFFSET 0 -0.543620 -0.000000
CHANNELS 3 Zrotation Xrotation Yrotation
										End Site
										{
OFFSET 0 -0.438280 -0.000000
										}
									}
								}
								JOINT RThumb
								{
OFFSET 0 0.000000 0.000000
CHANNELS 3 Zrotation Xrotation Yrotation
									End Site
									{
OFFSET 0 -0.444970 0.444970
									}
								}
							}
						}
					}
				}
			}
		}
	}
}
MOTION
Frames: 4
Frame Time: 0.008333333333333333
16.456267 16.028577 2.505627 -189.525853 2.862253 -168.056845 0.000000 0.000000 0.000000 -31.113286 -17.834972 -6.011610 0.442032 4.253664 11.793340 1.633776 -9.613866 -22.937454 5.535323 -13.961977 -43.086195 0.000000 0.000000 0.000000 24.305785 27.381571 -8.063620 -1.351915 -7.353410 20.770081 -1.532441 -4.757487 -25.515709 -0.256776 3.259438 -9.002059 3.501046 -1.920436 8.762968 4.313511 -0.702065 -9.359652 2.954015 -0.059482 -15.413162 -0.040418 -1.136714 -13.669095 -5.509457 2.674840 31.804211 -1.517788 1.383549 12.988516 0.000000 0.000000 0.000000 5.924863 29.297754 -35.383518 27.896913 -39.005658 10.064647 31.564981 22.485652 -19.229011 0.000000 0.000000 0.000000 -7.125000 0.000000 0.000000 3.408965 52.212361 -0.609693 0.000000 0.000000 0.000000 -23.093789 33.611281 39.492562 -25.722940 -36.932324 -8.721251 -25.098306 1.432195 17.793483 0.000000 0.000000 0.000000 7.125000 0.000000 0.000000 2.884029 49.472474 -0.317971
16.437406 16.059541 2.504414 -189.516140 3.023749 -167.947013 0.000000 0.000000 0.000000 -31.180446 -17.815184 -5.692949 0.388042 3.996410 11.067106 1.679382 -9.201083 -23.232677 5.592404 -14.021202 -43.322794 0.000000 0.000000 0.000000 24.207815 27.514945 -7.755682 -1.261567 -7.118766 20.068281 -1.496490 -4.979347 -25.369895 -0.245404 3.186684 -8.799120 3.317732 -1.906196 8.899889 4.325701 -0.694438 -9.424764 3.078011 -0.031383 -15.576595 -0.036983 -1.157470 -13.659070 -5.370947 2.577513 31.781916 -1.480062 1.353129 12.969646 0.000000 0.000000 0.000000 6.103591 29.974170 -35.621997 28.700579 -39.748398 10.570434 31.905921 22.311622 -19.397299 0.000000 0.000000 0.000000 -7.125000 0.000000 0.000000 3.742102 52.468661 -0.688720 0.000000 0.000000 0.000000 -23.332773 33.829555 39.518376 -25.968986 -37.177543 -8.869111 -24.943358 0.962433 17.621737 0.000000 0.000000 0.000000 7.125000 0.000000 0.000000 2.998739 49.262822 -0.313841
16.422343 16.082135 2.502923 -189.475234 3.210849 -167.801356 0.000000 0.000000 0.000000 -31.115111 -17.598074 -5.545915 0.343504 3.751851 10.381176 1.690736 -8.845006 -23.303862 5.642906 -14.072736 -43.530423 0.000000 0.000000 0.000000 24.136592 27.729609 -7.571871 -1.197378 -6.938509 19.535234 -1.473016 -5.163312 -25.297525 -0.227206 3.063773 -8.456767 3.036853 -1.904093 9.032549 4.414701 -0.702963 -9.504207 3.348185 0.010861 -15.753526 -0.066038 -1.146383 -13.675051 -5.296245 2.565088 31.776793 -1.448637 1.349115 12.968843 0.000000 0.000000 0.000000 6.136851 30.670384 -35.807261 29.510299 -40.452564 11.096790 31.963802 22.131136 -19.572164 0.000000 0.000000 0.000000 -7.125000 0.000000 0.000000 3.780103 52.678202 -0.715366 0.000000 0.000000 0.000000 -23.747955 34.008359 39.567693 -26.224977 -37.428105 -9.024785 -24.497630 0.211588 17.324228 0.000000 0.000000 0.000000 7.125000 0.000000 0.000000 3.368465 48.873637 -0.316135
16.407280 16.104730 2.501432 -189.434327 3.397948 -167.655698 0.000000 0.000000 0.000000 -31.049775 -17.380964 -5.398881 0.298966 3.507291 9.695247 1.702090 -8.488928 -23.375047 5.693408 -14.124271 -43.738052 0.000000 0.000000 0.000000 24.065369 27.944273 -7.388059 -1.133189 -6.758253 19.002188 -1.449543 -5.347276 -25.225155 -0.209008 2.940863 -8.114414 2.755975 -1.901991 9.165208 4.503701 -0.711489 -9.583650 3.618359 0.053106 -15.930456 -0.095093 -1.135296 -13.691031 -5.221542 2.552663 31.771670 -1.417211 1.345100 12.968040 0.000000 0.000000 0.000000 6.170112 31.366597 -35.992526 30.320018 -41.156729 11.623146 32.021683 21.950650 -19.747030 0.000000 0.000000 0.000000 -7.125000 0.000000 0.000000 3.818104 52.887743 -0.742013 0.000000 0.000000 0.000000 -24.163137 34.187162 39.617010 -26.480967 -37.678667 -9.180459 -24.051902 -0.539257 17.026719 0.000000 0.000000 0.000000 7.125000 0.000000 0.000000 3.738191 48.484451 -0.318428
